<?xml version="1.0" encoding="utf-8"?>
<!-- Generator: Adobe Illustrator 26.0.3, SVG Export Plug-In . SVG Version: 6.00 Build 0)  -->
<svg version="1.1" id="Layer_1" xmlns="http://www.w3.org/2000/svg" xmlns:xlink="http://www.w3.org/1999/xlink" x="0px" y="0px"
	 viewBox="0 0 700 700" style="enable-background:new 0 0 700 700;" xml:space="preserve">
<style type="text/css">
	.st0{fill:#F2DFAF;}
	.st1{opacity:0.5;}
	.st2{fill:none;stroke:#C9B84F;stroke-width:4.863;stroke-miterlimit:10;}
	.st3{fill:none;stroke:#C9B84F;stroke-width:4.8631;stroke-miterlimit:10.0003;}
	.st4{fill:none;stroke:#C9B84F;stroke-width:4.8631;stroke-miterlimit:10.0002;}
	.st5{fill:none;stroke:#C9B84F;stroke-width:4.8628;stroke-miterlimit:9.9996;}
	.st6{fill:none;stroke:#C9B84F;stroke-width:4.863;stroke-miterlimit:9.9999;}
</style>
<rect x="-11.7" y="-9.6" class="st0" width="723.4" height="723.4"/>
<g class="st1">
	<path class="st2" d="M140.9-78.4c4.9-0.4,8.6-4.5,8.2-9.4c-0.4-4.9-4.5-8.6-9.4-8.2c-4.9,0.4-8.6,4.5-8.2,9.4l0,0
		C131.7-81.8,136-78.1,140.9-78.4z"/>
	
		<ellipse transform="matrix(0.4885 -0.8726 0.8726 0.4885 213.9766 134.089)" class="st3" cx="221.4" cy="-115.5" rx="8.8" ry="8.8"/>
	
		<ellipse transform="matrix(0.9729 -0.2313 0.2313 0.9729 38.9741 69.8732)" class="st4" cx="317.4" cy="-131.2" rx="8.8" ry="8.8"/>
	<path class="st2" d="M427.1-117c4.9-0.4,8.5-4.6,8.1-9.4c-0.4-4.9-4.6-8.5-9.4-8.1c-4.9,0.4-8.5,4.6-8.1,9.4
		C418.1-120.2,422.2-116.6,427.1-117z"/>
	<ellipse transform="matrix(0.8427 -0.5384 0.5384 0.8427 -339.3704 52.508)" class="st2" cx="-79.8" cy="607" rx="8.8" ry="8.8"/>
	
		<ellipse transform="matrix(0.9974 -7.249945e-02 7.249945e-02 0.9974 -36.3284 -8.0066)" class="st2" cx="-128.5" cy="496.4" rx="8.8" ry="8.8"/>
	
		<ellipse transform="matrix(0.8427 -0.5384 0.5384 0.8427 -232.4501 -17.9905)" class="st2" cx="-147" cy="388.8" rx="8.8" ry="8.8"/>
	<path class="st2" d="M-136.9,273.9c4.7-1.4,7.3-6.3,5.8-11.1s-6.3-7.3-11.1-5.8c-4.7,1.4-7.3,6.3-5.8,11.1l0,0
		C-146.5,272.6-141.6,275.3-136.9,273.9z"/>
	<circle class="st2" cx="-100.4" cy="147.8" r="8.8"/>
	<g>
		<path class="st2" d="M378.9,865.3C99,885.7-144.6,675.2-165,395.2S25.2-128.4,305.2-148.7S828.7,41.4,849,321.4
			S658.9,845,378.9,865.3z"/>
		
			<ellipse transform="matrix(2.604905e-02 -0.9997 0.9997 2.604905e-02 616.2013 454.6701)" class="st5" cx="541.4" cy="-88.9" rx="8.8" ry="8.8"/>
		
			<ellipse transform="matrix(0.9729 -0.2313 0.2313 0.9729 23.0727 148.9294)" class="st4" cx="646.6" cy="-23.9" rx="8.8" ry="8.8"/>
		
			<ellipse transform="matrix(0.3147 -0.9492 0.9492 0.3147 442.0953 736.9395)" class="st3" cx="731.4" cy="62.3" rx="8.8" ry="8.8"/>
		<ellipse transform="matrix(0.654 -0.7565 0.7565 0.654 160.048 642.9505)" class="st6" cx="782.9" cy="146.5" rx="8.8" ry="8.8"/>
		<ellipse class="st2" cx="815.5" cy="239.5" rx="8.8" ry="8.8"/>
		<path class="st2" d="M828.6,339.4c-4.7,1.4-7.3,6.3-5.8,11.1c1.4,4.7,6.3,7.3,11.1,5.8c4.6-1.4,7.3-6.3,5.8-11.1
			C838.2,340.6,833.2,338.1,828.6,339.4L828.6,339.4z"/>
		<circle class="st2" cx="825.9" cy="437.7" r="8.8"/>
		<circle class="st2" cx="799.9" cy="541.1" r="8.8"/>
		<path class="st2" d="M758.6,603.1c-4.7,1.4-7.3,6.3-5.8,11.1c1.4,4.7,6.3,7.3,11.1,5.8c4.6-1.4,7.3-6.3,5.8-11.1
			C768.2,604.3,763.2,601.7,758.6,603.1L758.6,603.1z"/>
		<circle class="st2" cx="704.2" cy="688.8" r="8.8"/>
		<path class="st2" d="M609.6,757.8c-4.7,1.4-7.3,6.3-5.8,11.1c1.4,4.7,6.3,7.3,11.1,5.8c4.6-1.4,7.3-6.3,5.8-11.1
			C619.3,758.9,614.3,756.4,609.6,757.8C609.7,757.7,609.7,757.7,609.6,757.8z"/>
		<circle class="st2" cx="537.7" cy="807.4" r="8.8"/>
		<circle class="st2" cx="421.5" cy="841.4" r="8.8"/>
		
			<ellipse transform="matrix(0.9974 -7.249945e-02 7.249945e-02 0.9974 -60.3703 22.1556)" class="st2" cx="275" cy="842.7" rx="8.8" ry="8.8"/>
		
			<ellipse transform="matrix(0.5763 -0.8173 0.8173 0.5763 -597.1761 480.9714)" class="st6" cx="165.2" cy="816.4" rx="8.8" ry="8.8"/>
		
			<ellipse transform="matrix(0.8427 -0.5384 0.5384 0.8427 -402.3639 161.3616)" class="st2" cx="74.9" cy="769.2" rx="8.8" ry="8.8"/>
		<path class="st2" d="M-14.2,687.7c-4.7,1.4-7.3,6.3-5.8,11.1c1.4,4.7,6.3,7.3,11.1,5.8c4.6-1.4,7.3-6.3,5.8-11.1
			C-4.6,688.9-9.6,686.4-14.2,687.7z"/>
		<path class="st2" d="M-27.7,49.7c4.7-1.4,7.3-6.3,5.8-11.1s-6.3-7.3-11.1-5.8c-4.7,1.4-7.3,6.3-5.8,11.1l0,0
			C-37.3,48.5-32.3,51.2-27.7,49.7z"/>
		<circle class="st2" cx="48.7" cy="-34.7" r="8.8"/>
		<path class="st2" d="M594,584.4l-0.1-1.3l-2.9,1.1L594,584.4z"/>
		<path class="st2" d="M567.2,146l0.1-0.6l-4.7-0.2c0,0.2,0,0.3,0.1,0.5C562.6,145.8,564.2,145.8,567.2,146z"/>
		<path class="st2" d="M652.8,338.7l2.4-3.2l-3.1-2.4c-0.5,0.9-1,1.8-1.5,2.7C650.6,335.8,651.4,336.9,652.8,338.7z"/>
		<path class="st2" d="M663.1,204.2c17.1,33.6-15.3,67.8-55.3,95l44.2,34c90.3-166.7-56.8-185.2-84.9-187.2
			c-0.7,15.6-1.4,31.3-2.1,46.9C606,177.2,647,172.4,663.1,204.2z"/>
		<path class="st2" d="M691.6,474.9c-1.6,36.5-52.9,37.8-106,29.3l8.1,78.9c181.5-69.2,76-221.5,58.9-244.3L614,392.1
			C655.8,412.6,693.2,440.7,691.6,474.9z"/>
		<path class="st2" d="M589.4,584.7l1.5-0.5l-71.5-5c8.6,33.5,6.5,65.6-24.4,80.3c-32.8,15.5-63.1-4.9-87.3-33.9l-41.5,43.3
			l-52-43.8c-18.4,28.5-43.9,50.9-77.8,45.1c-38.4-6.5-44.6-46.7-40.3-88.1l-74.6-1.8c1.1-19.8,2.1-39.8,3.3-59.6
			c-35.5,8.5-69.6,8.6-80.8-16.9c-12.1-27.4,15.1-56.5,47.9-80l-45.2-44l32-49.9c-41.7-18.4-75.1-39.9-60.5-79
			c14-37.6,49.6-35.6,89.5-25.4l-1.1-68.9l71.7-6.6c-12.7-35.2-15.6-66.8,23.5-83.3c40.7-17.3,62,9.2,79.4,44.6L325,72.6l55,37.3
			c20.5-25.1,45.7-43.7,72.4-36.1c26.7,7.6,33.2,36.8,31.4,69.5l78.6,2c-2.9-8.8-27.7-76.2-100.8-98.8
			c-75.9-23.5-136,22.4-141.1,26.5c-155.3-100.4-218.5,83.9-218.5,83.9c-196.3,48.8-59.9,223.2-59.9,223.2
			c-79.8,149.1,74.7,200.5,74.7,200.5c55.4,162.5,244.9,88.6,244.9,88.6C509.3,741.7,589.4,584.7,589.4,584.7z"/>
		<path class="st2" d="M459.2,250.7L459.2,250.7L459.2,250.7z"/>
		<path class="st2" d="M585.7,504.2l-6.6-63.7l35-48.4c-51.4-25.2-109.4-39.2-109.4-39.2s56.7-22,103.3-53.7l-46.1-35.6
			c1.1-23.6,2.1-47.2,3.2-70.8c-52.8,20.1-105.7,57.8-105.9,57.9c63,65.6,61,169.8-4.5,232.8c-65.6,63-169.8,61-232.8-4.5
			s-61-169.9,4.5-233c27.7-26.7,63.9-42.7,102.2-45.5c48.9-3.7,96.8,14.7,130.7,50.2c0-0.2,22.1-57.7,24.7-107.5l-56.8-1.4l-47.1-32
			c-31,37.9-51.6,90.7-51.6,90.7c-19.8-20.8-32-58.4-47.3-89.3L243.9,144l-65.8,6.1c12.1,33.5,33.1,70.3,34.9,100.2
			c-30.7,0.1-69.9-15.6-105.6-24.7l0.9,57.7l-29.8,46.6c34.2,15.1,73.9,28,97.6,47c0,0-46,19.7-84.3,47l36.1,35.2
			c-1.1,20.5-2.2,41.2-3.4,61.7c47-11.3,96.1-37.4,96.1-37.4s-19.7,50.2-24.7,98.7l69.1,1.6L314,625c26.8-41.4,38.2-95.8,38.2-95.8
			s21.7,56.4,55.3,96.4l48.7-50.9l63.1,4.4c-13.2-51.1-51.5-105.3-51.5-105.3S527.9,494.8,585.7,504.2z"/>
		<path class="st2" d="M433.6,313.8l-44.4,4.1c-0.8-14.2-1.7-28.4-2.5-42.5l-0.3-0.3l0.3-0.3c-0.5-8.8-1.1-17.6-1.5-26.4l-14.9,19.9
			c0.1,0.7,0.1,1.3,0.1,2l-1.7,0.1l-28.9,38.6c-9.3-11.1-18.7-22.1-28-33.2l-2.2,0.2c-0.3-1.3-0.6-2.5-0.8-3.7l-19.7-23.3
			c2.3,24.5,4.5,49.1,6.8,73.6l-68.3-2.5l51.8,43.8l-23.2,26.8l0.3,0.7l-1.3,0.4L233.3,417l11.9-2c0.3-0.2,0.5-0.4,0.8-0.7l0.5,0.5
			l53.6-9.1c-0.5,17.1-0.8,34.1-1.3,51.1l0.5,0.5l-0.6,0.6l-0.3,13.6l18.2-17.6c0-0.3,0.1-0.5,0.1-0.7l0.6,0l30.6-29.6l37.4,32
			l3.2,0.1c0.1,0.9,0,1.8,0.1,2.6l11.8,10.1l-11.4-64l67.5-5.4l-16.8-13.1c-0.8,0.1-1.6,0.1-2.3,0.1l-0.1-1.9
			c-12-9.6-24-19.1-36.1-28.7l34.1-31.1l-0.1-1.9c0.9-0.2,1.8-0.3,2.7-0.5l10.3-9.4l-10.2,0.9c-0.8,0.8-1.6,1.4-2.5,2.1L433.6,313.8
			z M326,318.1c0.2,2.7-1.8,5.1-4.6,5.3c-2.7,0.2-5.1-1.8-5.3-4.6c-0.2-2.7,1.8-5.1,4.6-5.3l0,0C323.5,313.4,325.8,315.4,326,318.1
			L326,318.1z M326.7,368.9c0.1,1.5-1,2.8-2.5,2.9c-1.5,0.1-2.8-1-2.9-2.5c-0.1-1.5,1-2.8,2.5-2.9l0,0
			C325.3,366.3,326.6,367.4,326.7,368.9L326.7,368.9z M308.3,288.2c4.8-0.3,8.9,3.3,9.3,7.9c0.3,4.8-3.3,8.9-7.9,9.3
			c-4.8,0.3-8.9-3.3-9.3-7.9l0,0C300,292.6,303.6,288.6,308.3,288.2L308.3,288.2z M314.4,352.5c-1,1.2-2.7,1.3-3.9,0.3
			c-1.2-1-1.3-2.7-0.3-3.9s2.7-1.3,3.9-0.3l0,0C315.3,349.7,315.4,351.4,314.4,352.5L314.4,352.5z M266.1,344.1
			c-3.5-3.2-3.9-8.6-0.8-12.2c3.2-3.5,8.6-3.9,12.2-0.8s3.9,8.5,0.8,12.2C275.2,346.9,269.8,347.3,266.1,344.1z M286.8,397.4
			c-4.8,0.3-8.9-3.3-9.2-8c-0.3-4.8,3.3-8.9,8-9.2c4.8-0.3,8.9,3.3,9.2,8C295.1,392.9,291.4,397,286.8,397.4L286.8,397.4z
			 M292.5,348.3c-2-1.8-2.3-4.9-0.5-7c1.8-2,4.9-2.3,7-0.5c2,1.8,2.3,4.9,0.5,7l0,0C297.6,349.8,294.5,350.1,292.5,348.3 M302.9,377
			c-0.2-2.7,1.8-5.1,4.6-5.3c2.7-0.2,5.1,1.8,5.3,4.6c0.2,2.7-1.8,5.1-4.6,5.3C305.5,381.8,303.1,379.7,302.9,377
			C302.9,377,302.9,376.9,302.9,377L302.9,377z M324.2,432.8c-3.6,3.2-9,2.9-12.2-0.7c-3.2-3.6-2.9-9,0.7-12.2
			c3.6-3.2,9-2.9,12.2,0.7l0,0C328,424.2,327.7,429.7,324.2,432.8L324.2,432.8z M331.7,407.3c-2.1,1.9-5.2,1.6-6.9-0.4
			c-1.7-2-1.6-5.2,0.4-6.9c2.1-1.9,5.2-1.6,6.9,0.4S333.7,405.5,331.7,407.3L331.7,407.3z M325.9,334.9c-0.1-1.5,1-2.8,2.5-2.9
			c1.5-0.1,2.8,1,2.9,2.5c0.1,1.5-1,2.8-2.5,2.9C327.3,337.6,326,336.5,325.9,334.9C325.8,335,325.8,334.9,325.9,334.9L325.9,334.9z
			 M338.5,389.9c-1.1,1-2.8,0.9-3.8-0.2c-1-1.1-0.9-2.8,0.2-3.8c1.1-1,2.8-0.9,3.8,0.2l0,0C339.7,387.2,339.6,388.8,338.5,389.9
			L338.5,389.9z M362,294.4c3.4-3.4,8.9-3.3,12.2,0.1s3.3,8.9-0.1,12.2s-8.9,3.3-12.2-0.1C358.4,303.2,358.4,297.8,362,294.4
			C361.9,294.4,361.9,294.3,362,294.4L362,294.4z M376.2,347.9c0,1.5-1.1,2.8-2.6,2.8c-1.5,0-2.8-1.1-2.8-2.6s1.1-2.8,2.6-2.8
			C374.9,345.2,376.2,346.4,376.2,347.9L376.2,347.9z M371.8,374.5c-1,1.2-2.7,1.3-3.9,0.3c-1.2-1-1.3-2.7-0.3-3.9
			c1-1.2,2.7-1.3,3.9-0.3l0,0C372.6,371.7,372.7,373.4,371.8,374.5L371.8,374.5z M355.8,320.4c2-1.9,5.1-1.9,7,0.1
			c1.9,2,1.9,5.1-0.1,7c-2,1.9-5.1,1.9-7-0.1l0,0c-1.9-1.9-2-5.1-0.1-7C355.7,320.4,355.6,320.3,355.8,320.4L355.8,320.4z
			 M349.7,338c1-1.1,2.8-1,3.8,0c1.1,1,1,2.8,0,3.8c-1,1.1-2.7,1-3.8,0C348.7,340.8,348.7,339.1,349.7,338z M353.7,389.3
			c-0.1-1.5,1-2.8,2.5-2.9c1.5-0.1,2.8,1,2.9,2.5c0.1,1.5-1,2.8-2.5,2.9S353.9,390.8,353.7,389.3L353.7,389.3L353.7,389.3z
			 M359,405.5c-0.2-2.7,1.8-5.1,4.6-5.3c2.7-0.2,5.1,1.8,5.3,4.6c0.2,2.7-1.8,5.1-4.6,5.3C361.6,410.4,359.2,408.3,359,405.5
			L359,405.5L359,405.5z M376.8,435.5c-4.8,0.3-8.9-3.3-9.2-8c-0.3-4.8,3.3-8.9,8-9.2c4.7-0.3,8.9,3.3,9.2,8
			C385.1,431,381.4,435.2,376.8,435.5L376.8,435.5z M390.1,382.2c-1.8,2-4.9,2.3-7,0.5c-2-1.8-2.3-4.9-0.5-7c1.8-2,4.9-2.3,7-0.5
			l0,0C391.8,377,392,380.1,390.1,382.2L390.1,382.2z M390,346c-2.7,0.1-5.1-2-5.2-4.7c-0.1-2.7,2-5.1,4.7-5.2
			c2.7-0.1,5.1,2,5.2,4.7c0,0,0,0,0,0.1C394.8,343.6,392.7,345.8,390,346L390,346z M403.8,380.1c3.1-3.6,8.5-4,12.2-0.9
			c3.6,3.1,4,8.5,0.9,12.2c-3.1,3.6-8.5,4-12.2,0.9l0,0C401.2,389.2,400.8,383.8,403.8,380.1L403.8,380.1L403.8,380.1z M412.3,338.3
			c-4.8,0.1-8.8-3.6-8.9-8.3c-0.1-4.8,3.6-8.8,8.3-8.9c4.8-0.1,8.8,3.6,8.9,8.3C420.7,334.1,417,338.1,412.3,338.3L412.3,338.3z"/>
		<path class="st2" d="M291.2,281.4c-16.4-21.8-42.8-23.7-53-14.2c-10.1,9.5-10.2,35.8,10,53.9L291.2,281.4z"/>
		<path class="st2" d="M368.6,270.5l1.7-2.1c-2-26.9-22.7-44-36.9-42.6c-13.7,1.4-28.9,21.2-24.5,46.8l2.9,3.5L368.6,270.5z"/>
		<path class="st2" d="M448.1,259c-11.7-9.5-42.1-6.9-61.5,15.8l0,0.6l46.9,38.4l4.6-0.4C459.6,294.3,459.5,268.3,448.1,259z"/>
		<path class="st2" d="M437.4,383.8l2.3,1.8c27.7-0.9,46.6-21.8,46.2-36.5c-0.5-14.7-20.5-31.5-47.8-27.4l-2.6,2.5L437.4,383.8z"/>
		<path class="st2" d="M432.6,401.7l-33.5,54.2c22.3,21.2,49.6,17.8,57.6,4.9C464.7,447.9,457.9,417.9,432.6,401.7z"/>
		<path class="st2" d="M317.4,453.4l-0.7,0.8c-4.9,32.9,15.7,57.3,32.7,57.9c16.6,0.5,39.4-21.4,39.3-53.4l-3.2-2.8L317.4,453.4z"/>
		<path class="st2" d="M246.5,414.9l-1.3,0.2c-24.6,21-24.4,50.2-11.9,60.3c12.6,10.1,44.9,7,65.4-17.4l0-1.1L246.5,414.9z"/>
		<path class="st2" d="M232.3,326.6c-33.1,5.1-48.3,31-42.5,46.4c5.7,15.4,35.2,29.2,65.5,18.9l1-1.2L232.3,326.6z"/>
		<polygon class="st2" points="319,-110 301,-25.2 349,-28.7 		"/>
		<polygon class="st2" points="423.1,-103.5 386.9,-24.8 434.7,-17.7 		"/>
		<polygon class="st2" points="533.7,-72.8 475.6,-8.3 519.1,12.7 		"/>
		<polygon class="st2" points="595.4,75.8 631.5,-2.9 558.9,44.3 		"/>
		<polygon class="st2" points="665.8,144.8 717.1,74.9 636.5,106.4 		"/>
		<polygon class="st2" points="701.9,218.6 764,158 679.1,176 		"/>
		<polygon class="st2" points="708.9,238.7 718.7,286 795.3,245.4 		"/>
		<polygon class="st2" points="726.7,380.9 808,350.7 723.2,332.7 		"/>
		<polygon class="st2" points="725,476 804.3,441 718.6,428.1 		"/>
		<polygon class="st2" points="694.4,542.1 780.9,535.8 704.5,494.8 		"/>
		<polygon class="st2" points="663.1,601.2 749.5,607.9 680.1,556.1 		"/>
		<polygon class="st2" points="606,663.6 691.5,678.2 627,620.2 		"/>
		<polygon class="st2" points="533.2,704.8 602.6,756.5 571.7,675.6 		"/>
		<polygon class="st2" points="503.6,708.2 463.3,734.6 529,791 		"/>
		<polygon class="st2" points="421.4,824.5 427.8,738.1 380.6,748.1 		"/>
		<polygon class="st2" points="277.5,824.4 313.7,745.6 265.9,738.5 		"/>
		<polygon class="st2" points="172.4,791.9 223.6,722.1 178.4,705.4 		"/>
		<polygon class="st2" points="108.6,662.7 90.6,747.5 151.2,685.4 		"/>
		<polygon class="st2" points="4.6,679.3 81.2,638.6 47.6,603.9 		"/>
		<polygon class="st2" points="-2.1,535.8 -54.6,604.7 26.6,574.6 		"/>
		<polygon class="st2" points="-29.5,439.2 -99.2,490.7 -12.7,484.4 		"/>
		<polygon class="st2" points="-54,338.9 -126.4,386.4 -39.7,385 		"/>
		<polygon class="st2" points="-42.6,231.3 -123.9,261.4 -39.1,279.4 		"/>
		<polygon class="st2" points="1.5,159.9 -84.9,153.3 -15.5,205.1 		"/>
		<polygon class="st2" points="73.8,72.4 -10.5,52.1 49.9,114.3 		"/>
		<polygon class="st2" points="138.9,17.8 62.5,-23.1 105.2,52.3 		"/>
		<polygon class="st2" points="221.9,-17.7 152.5,-69.5 183.4,11.4 		"/>
		<polygon class="st2" points="241.8,-10.7 285.9,-30.1 230.2,-96.5 		"/>
	</g>
</g>
</svg>
