<?xml version="1.0" encoding="utf-8"?>
<!-- Generator: Adobe Illustrator 26.0.3, SVG Export Plug-In . SVG Version: 6.00 Build 0)  -->
<svg version="1.1" id="Layer_1" xmlns="http://www.w3.org/2000/svg" xmlns:xlink="http://www.w3.org/1999/xlink" x="0px" y="0px"
	 viewBox="0 0 39.1 26.9" style="enable-background:new 0 0 39.1 26.9;" xml:space="preserve">
<g id="Text">
	<path class="st0" d="M19.5,0h15.3c2.3-0.1,4.2,1.7,4.3,3.9c0,0.1,0,0.1,0,0.2v18.7c0.1,2.2-1.8,4.1-4,4.1c-0.1,0-0.2,0-0.2,0H4.3
		C2,27,0.1,25.3,0,23c0-0.1,0-0.2,0-0.3V4.2C-0.1,1.9,1.7,0.1,4,0c0.1,0,0.2,0,0.3,0H19.5z M2.8,6.8v0.4c0,5.2,0,10.3,0,15.5
		c0,1,0.6,1.5,1.6,1.5h30.3c1,0,1.6-0.5,1.6-1.5c0-5.2,0-10.3,0-15.5c0-0.1,0-0.2,0-0.4L36,7c-4,3-8.1,5.9-12.1,9
		c-2.5,2-6.1,2-8.7,0c-3.3-2.4-6.6-4.9-9.8-7.3L2.8,6.8z M36.1,3.5c-0.3-0.5-0.9-0.8-1.5-0.8H4.4c-0.1,0-0.2,0-0.3,0
		c-0.5,0-1,0.3-1.2,0.8l0.4,0.3c4.5,3.3,8.9,6.6,13.4,9.9c1.9,1.4,3.8,1.4,5.7,0c3.4-2.5,6.8-5.1,10.2-7.6L36.1,3.5z"/>
	<path d="M2.8,6.8l2.6,1.9c3.3,2.4,6.6,4.9,9.8,7.3c2.6,1.9,6.1,1.9,8.7,0c4-3,8-6,12.1-9l0.3-0.2c0,0.2,0,0.3,0,0.4
		c0,5.1,0,10.3,0,15.5c0,1-0.6,1.5-1.6,1.5H4.3c-1,0-1.6-0.5-1.6-1.6c0-5.1,0-10.3,0-15.4L2.8,6.8z"/>
	<path d="M36.1,3.5l-3.5,2.6c-3.4,2.5-6.8,5.1-10.2,7.6c-1.9,1.4-3.8,1.4-5.7,0c-4.4-3.3-8.9-6.6-13.3-9.9L2.9,3.5
		C3.2,3,3.6,2.7,4.2,2.7c0.1,0,0.2,0,0.3,0h30.2C35.3,2.6,35.9,2.9,36.1,3.5z"/>
</g>
</svg>
