<svg xmlns="http://www.w3.org/2000/svg" viewBox="0 0 700 700"><defs><style>.cls-1{fill:#cdebf2;}.cls-2{opacity:0.5;}.cls-3,.cls-4{fill:#fff;stroke:#fff;}.cls-10,.cls-3,.cls-4,.cls-5,.cls-9{stroke-miterlimit:10;}.cls-3{stroke-width:0.59px;}.cls-4{stroke-width:0.6px;}.cls-5,.cls-6{fill:#f2dfaf;}.cls-5{stroke:#f1d116;stroke-width:1.58px;}.cls-7{fill:#f1d116;}.cls-8{fill:#cbb12d;}.cls-10,.cls-9{fill:none;stroke:#cbb12d;}.cls-9{stroke-width:0.53px;}.cls-10{stroke-width:0.26px;}</style></defs><g id="Text"><rect class="cls-1" x="-20.86" y="-18.32" width="732.1" height="732.1"/><g id="_0jA1Dw" data-name="0jA1Dw" class="cls-2"><path class="cls-3" d="M479.38,72.3c4.13.86,8.43,1.43,12.36,2.62,17.11,5.17,26.3,14.7,29.45,27.72,16.31-.4,27.18,5.22,33,15.45,8-.81,15.73-2.17,23.46-2.27,27-.36,50,5.64,64.94,22.48,3.53,4,5.18,8.76,7.87,13.47,15.69,0,28.26,4.66,33.4,16.29,3.78,8.56.09,16.2-9.47,22-11.18,6.79-23.87,7.31-37.21,3.35-18.33,14.6-39.72,17.06-63.7,8.1-4.67,3.31-8.86,7-14,9.78-22,12.15-46,14.31-71.7,6.54-3.1-.93-5-.84-7.66.7-21.74,12.56-56.89,12.11-78.14-.89-3.61-2.21-7.05-4.57-10.82-7a50,50,0,0,1-26.36,3.73c-10.39-1.21-18.63-4.84-24.18-11.23a6.4,6.4,0,0,0-5-2.45c-7.87-.6-14.58-3-19.73-7.34a6.25,6.25,0,0,0-4.79-1.43c-12.54.53-24.3-1.19-34.62-6.54-11.6-6-15.79-15.11-10.57-23.6,4.12-6.71,11.86-10.95,21.39-13.18,6.15-1.44,12.77-1.95,19.24-2.58,2.3-.23,3.44-.52,4.08-2.26,5.49-15,24.32-26.14,46.1-27.74,12.91-.95,25,.62,36.2,5.26a15.13,15.13,0,0,0,1.52.42c6.66-9.51,17.19-14.46,32.37-13.47.77-3.47,1.07-6.8,2.29-10,5.31-13.67,17.48-22.38,37.46-25.24a28.89,28.89,0,0,0,2.92-.71ZM443,119c-1-.56-1.4-.67-1.5-.85-2.86-5.46-8.93-8-16.61-8.63-11.13-.93-22.91,4-27.59,11.46-.43.69.21,1.93.86,2.7a48,48,0,0,0,4.13,3.88l-.74.45c-14.76-10.52-32.61-13-52.24-9.56S313.87,134,312,146.08l9,2-.37.83a18.77,18.77,0,0,1-2.62-.21,60.2,60.2,0,0,0-39.25,4.45c-17.58,8.31-17.57,23-.22,31.54,9.21,4.52,19.56,6.21,30.64,6,2.16,0,4.66.28,3.82-3.07,8.37,9.92,19.06,14.06,34.35,10.25l.17.79-6.49,2.26c.7.84,1.27,1.64,2,2.36,10,10.32,30.54,13.16,46.4,6.37,1.94-.82,3.14-1.18,4.94.38,18.28,15.95,47.51,20.72,73.89,12.1,4.94-1.62,9.66-3.56,13.44-6.45l-8.63-5.41.77-1c16.64,10.89,36.24,13.85,57.49,10.36s36.85-12.36,45.86-26.8a11.91,11.91,0,0,1-2,5.22c-.95,1.33-.74,2,1.07,2.79,24.32,10.39,55.94,1.58,63.52-14.92.18-.39.72-.7,1.09-1.05l1,.31c-1.09,2.31-2.19,4.62-3.35,7.06a41.2,41.2,0,0,0,18.49,2c12.4-1.48,21.12-6.32,25-14.83,3.54-7.73-.63-16.14-9.84-21.38-11.48-6.52-26.92-6.43-39.37.21a30.1,30.1,0,0,1-2.89,1.19c-.22-.81,0-1.26.37-1.41,4.6-1.79,9.06-3.84,13.92-5.15,2.87-.78,3.27-1.59,2.7-3.4-2.7-8.5-9-15.41-18.52-20.87-16.6-9.51-35.82-12.73-56.72-11.2-13.73,1-26.62,3.53-34.51,12.69-.27.31-1.17.35-1.78.51,3.22-4.71,7.9-8.19,14.21-10.49,1.73-.63,2.88-1.18,2-2.83-4.29-7.73-15.56-13.25-27-13.19-2.24,0-3.49.2-3.25,2.17.2,1.59-.43,3.22-.69,4.83l-1.3-.07c0-.57,0-1.14,0-1.71.93-11.56-4.59-21.31-17.37-28.52-14.46-8.15-30.68-9.47-47.17-3.54-17,6.12-25,16.53-25.42,29.91,0,.72,1.12,1.66,2.07,2.15,2.36,1.21,5.15,2,7.35,3.35C441.18,114.12,443.13,116,443,119Z"/><path class="cls-3" d="M443,119c.16-3.06-1.79-4.9-4.21-6.36-2.2-1.32-5-2.14-7.35-3.35-1-.49-2.09-1.43-2.07-2.15.4-13.38,8.43-23.79,25.42-29.91,16.49-5.93,32.71-4.61,47.17,3.54,12.78,7.21,18.3,17,17.37,28.52,0,.57,0,1.14,0,1.71l1.3.07c.26-1.61.89-3.24.69-4.83-.24-2,1-2.16,3.25-2.17,11.48-.06,22.75,5.46,27,13.19.92,1.65-.23,2.2-2,2.83-6.31,2.3-11,5.78-14.21,10.49.61-.16,1.51-.2,1.78-.51,7.89-9.16,20.78-11.69,34.51-12.69,20.9-1.53,40.12,1.69,56.72,11.2,9.51,5.46,15.82,12.37,18.52,20.87.57,1.81.17,2.62-2.7,3.4-4.86,1.31-9.32,3.36-13.92,5.15-.41.15-.59.6-.37,1.41a30.1,30.1,0,0,0,2.89-1.19c12.45-6.64,27.89-6.73,39.37-.21,9.21,5.24,13.38,13.65,9.84,21.38-3.9,8.51-12.62,13.35-25,14.83a41.2,41.2,0,0,1-18.49-2c1.16-2.44,2.26-4.75,3.35-7.06l-1-.31c-.37.35-.91.66-1.09,1.05-7.58,16.5-39.2,25.31-63.52,14.92-1.81-.77-2-1.46-1.07-2.79a11.91,11.91,0,0,0,2-5.22c-9,14.44-24.62,23.31-45.86,26.8s-40.85.53-57.49-10.36l-.77,1,8.63,5.41c-3.78,2.89-8.5,4.83-13.44,6.45-26.38,8.62-55.61,3.85-73.89-12.1-1.8-1.56-3-1.2-4.94-.38-15.86,6.79-36.36,4-46.4-6.37-.71-.72-1.28-1.52-2-2.36l6.49-2.26-.17-.79c-15.29,3.81-26-.33-34.35-10.25.84,3.35-1.66,3-3.82,3.07-11.08.23-21.43-1.46-30.64-6-17.35-8.53-17.36-23.23.22-31.54A60.2,60.2,0,0,1,318,148.74a18.77,18.77,0,0,0,2.62.21l.37-.83-9-2c1.87-12.11,17.74-24.15,37.28-27.61s37.48-1,52.24,9.56l.74-.45a48,48,0,0,1-4.13-3.88c-.65-.77-1.29-2-.86-2.7,4.68-7.43,16.46-12.39,27.59-11.46,7.68.65,13.75,3.17,16.61,8.63C441.57,118.35,442,118.46,443,119Z"/></g><g id="_0jA1Dw-2" data-name="0jA1Dw" class="cls-2"><path class="cls-4" d="M226.37,458.62c3.91.94,8,1.56,11.71,2.87,16.21,5.67,24.92,16.1,27.9,30.36,15.46-.43,25.76,5.73,31.3,16.92,7.6-.88,14.9-2.37,22.23-2.48,25.53-.39,47.33,6.18,61.53,24.62,3.34,4.35,4.91,9.6,7.46,14.76,14.86,0,26.77,5.11,31.64,17.85,3.58,9.37.08,17.74-9,24.09-10.6,7.44-22.62,8-35.25,3.68-17.37,16-37.64,18.68-60.36,8.87-4.42,3.62-8.39,7.62-13.23,10.71-20.82,13.31-43.62,15.68-67.93,7.17-2.94-1-4.73-.93-7.26.77-20.6,13.75-53.9,13.26-74-1-3.43-2.43-6.69-5-10.26-7.7a41.64,41.64,0,0,1-25,4.08c-9.84-1.33-17.65-5.3-22.9-12.29a5.87,5.87,0,0,0-4.79-2.7c-7.45-.66-13.81-3.32-18.69-8A5.4,5.4,0,0,0,67,589.62c-11.89.58-23-1.31-32.81-7.16-11-6.58-15-16.55-10-25.86,3.91-7.35,11.24-12,20.27-14.43,5.82-1.58,12.1-2.14,18.22-2.83,2.19-.25,3.27-.57,3.87-2.48,5.2-16.38,23-28.63,43.68-30.39,12.23-1,23.66.68,34.3,5.77a12.86,12.86,0,0,0,1.44.45c6.31-10.41,16.29-15.83,30.67-14.75.73-3.8,1-7.45,2.17-10.9,5-15,16.56-24.51,35.49-27.64a26.46,26.46,0,0,0,2.77-.78Zm-34.5,51.18c-.94-.61-1.32-.73-1.41-.94-2.72-6-8.47-8.74-15.74-9.44-10.55-1-21.71,4.4-26.14,12.54-.42.76.19,2.12.81,3a47,47,0,0,0,3.91,4.25l-.7.49c-14-11.52-30.9-14.27-49.5-10.46s-33.55,17-35.32,30.24l8.55,2.23-.34.92a16.94,16.94,0,0,1-2.49-.24,50.12,50.12,0,0,0-37.19,4.87c-16.65,9.11-16.65,25.21-.2,34.55,8.72,5,18.53,6.81,29,6.56,2-.05,4.41.3,3.61-3.36,7.94,10.86,18.07,15.39,32.55,11.22l.16.86-6.15,2.48c.67.93,1.21,1.8,1.88,2.59,9.52,11.31,28.94,14.41,44,7,1.83-.9,3-1.3,4.67.42,17.33,17.46,45,22.69,70,13.24,4.68-1.77,9.16-3.9,12.74-7.06l-8.18-5.92.73-1.1C236.9,620.6,255.47,623.84,275.6,620s34.92-13.54,43.45-29.36a14.23,14.23,0,0,1-1.93,5.72c-.9,1.46-.7,2.21,1,3,23.05,11.38,53,1.73,60.19-16.34.17-.43.68-.76,1-1.14l1,.33c-1,2.53-2.08,5.06-3.17,7.73a34,34,0,0,0,17.51,2.19c11.76-1.63,20-6.93,23.71-16.25,3.35-8.47-.6-17.68-9.33-23.42-10.87-7.15-25.5-7-37.3.23a26.37,26.37,0,0,1-2.73,1.3c-.22-.88,0-1.37.34-1.55,4.36-2,8.59-4.2,13.19-5.64,2.72-.85,3.1-1.73,2.56-3.71-2.55-9.32-8.53-16.89-17.54-22.86-15.73-10.43-33.94-13.95-53.74-12.28-13,1.09-25.23,3.87-32.7,13.9-.26.34-1.12.38-1.69.56A27.42,27.42,0,0,1,292.92,511c1.64-.69,2.73-1.29,1.86-3.1-4.07-8.47-14.75-14.51-25.62-14.45-2.12,0-3.31.22-3.08,2.38.19,1.74-.41,3.52-.65,5.29l-1.24-.08c0-.62,0-1.25,0-1.87.88-12.66-4.35-23.34-16.47-31.24C234,459,218.67,457.54,203.05,464c-16.1,6.7-23.71,18.11-24.09,32.76,0,.79,1.06,1.83,2,2.36,2.23,1.33,4.88,2.22,7,3.67C190.18,504.42,192,506.45,191.87,509.8Z"/><path class="cls-4" d="M191.87,509.8c.15-3.35-1.69-5.38-4-7-2.08-1.45-4.73-2.34-7-3.67-.9-.53-2-1.57-2-2.36.38-14.65,8-26.06,24.09-32.76,15.62-6.5,31-5.05,44.68,3.88,12.12,7.9,17.35,18.58,16.47,31.24,0,.62,0,1.25,0,1.87l1.24.08c.24-1.77.84-3.55.65-5.29-.23-2.16,1-2.37,3.08-2.38,10.87-.06,21.55,6,25.62,14.45.87,1.81-.22,2.41-1.86,3.1a27.42,27.42,0,0,0-13.46,11.49c.57-.18,1.43-.22,1.69-.56,7.47-10,19.68-12.81,32.7-13.9,19.8-1.67,38,1.85,53.74,12.28,9,6,15,13.54,17.54,22.86.54,2,.16,2.86-2.56,3.71-4.6,1.44-8.83,3.69-13.19,5.64-.38.18-.56.67-.34,1.55a26.37,26.37,0,0,0,2.73-1.3c11.8-7.28,26.43-7.38,37.3-.23,8.73,5.74,12.68,15,9.33,23.42-3.69,9.32-11.95,14.62-23.71,16.25A34,34,0,0,1,377.18,590c1.09-2.67,2.13-5.2,3.17-7.73l-1-.33c-.36.38-.87.71-1,1.14-7.18,18.07-37.14,27.72-60.19,16.34-1.71-.84-1.91-1.59-1-3a14.23,14.23,0,0,0,1.93-5.72c-8.53,15.82-23.32,25.54-43.45,29.36s-38.7.58-54.47-11.34l-.73,1.1,8.18,5.92c-3.58,3.16-8.06,5.29-12.74,7.06-25,9.45-52.68,4.22-70-13.24-1.7-1.72-2.84-1.32-4.67-.42-15,7.43-34.45,4.33-44-7-.67-.79-1.21-1.66-1.88-2.59l6.15-2.48-.16-.86c-14.48,4.17-24.61-.36-32.55-11.22.8,3.66-1.57,3.31-3.61,3.36-10.5.25-20.31-1.6-29-6.56-16.45-9.34-16.45-25.44.2-34.55a50.12,50.12,0,0,1,37.19-4.87,16.94,16.94,0,0,0,2.49.24l.34-.92-8.55-2.23C69.55,526.18,84.59,513,103.1,509.2s35.52-1.06,49.5,10.46l.7-.49a47,47,0,0,1-3.91-4.25c-.62-.84-1.23-2.2-.81-3,4.43-8.14,15.59-13.56,26.14-12.54,7.27.7,13,3.47,15.74,9.44C190.55,509.07,190.93,509.19,191.87,509.8Z"/></g><circle class="cls-5" cx="354.36" cy="370.31" r="58.66"/><line class="cls-6" x1="373.22" y1="314.72" x2="424.28" y2="227.74"/><path class="cls-7" d="M373.22,314.72c16-29.42,33.18-58.65,51.06-87-16,29.42-33.18,58.64-51.06,87Z"/><path class="cls-8" d="M387.86,322.94c10.49-14.71,22.32-30.67,33.36-45-10.48,14.71-22.32,30.67-33.36,45Z"/><path class="cls-8" d="M405.15,344.21c15.19-9.79,32.09-20.23,47.64-29.43-15.18,9.79-32.09,20.23-47.64,29.43Z"/><line class="cls-6" x1="328.38" y1="317.84" x2="289.88" y2="224.61"/><path class="cls-7" d="M328.38,317.84c-13.78-30.54-26.72-61.86-38.5-93.23,13.78,30.54,26.71,61.87,38.5,93.23Z"/><line class="cls-6" x1="398.75" y1="333.73" x2="474.54" y2="267.18"/><path class="cls-7" d="M398.75,333.73c24.45-22.9,49.91-45.27,75.79-66.55-24.45,22.91-49.92,45.26-75.79,66.55Z"/><line class="cls-6" x1="411.97" y1="379.02" x2="512.2" y2="390.3"/><path class="cls-7" d="M412,379c33.39,2.68,67.07,6.46,100.23,11.28C478.8,387.63,445.12,383.83,412,379Z"/><path class="cls-8" d="M410.17,389.52c17.19,5.56,36,12,52.94,18.25-17.19-5.56-36-12-52.94-18.25Z"/><line class="cls-6" x1="387.28" y1="418.3" x2="461.29" y2="486.82"/><path class="cls-7" d="M387.28,418.3c25.3,22,50.17,45,74,68.52-25.31-22-50.17-45-74-68.52Z"/><path class="cls-8" d="M378.23,423.3c9,15.68,18.54,33.1,26.92,49.11-9-15.67-18.54-33.1-26.92-49.11Z"/><line class="cls-6" x1="369.45" y1="427.31" x2="393.49" y2="525.26"/><path class="cls-7" d="M369.45,427.31c9,32.26,17.11,65.17,24,97.95-9-32.26-17.1-65.18-24-97.95Z"/><path class="cls-8" d="M349.94,427.79c2.32,17.92,4.49,37.67,6.12,55.67-2.32-17.92-4.49-37.67-6.12-55.67Z"/><line class="cls-6" x1="333.84" y1="424.74" x2="322.92" y2="525.01"/><path class="cls-7" d="M333.84,424.74c-2.56,33.41-6.22,67.1-10.92,100.27,2.55-33.41,6.23-67.1,10.92-100.27Z"/><path class="cls-8" d="M322.92,420.79c-6.69,16.79-14.4,35.1-21.72,51.62,6.68-16.79,14.39-35.1,21.72-51.62Z"/><line class="cls-6" x1="315.02" y1="410.97" x2="251.56" y2="489.37"/><path class="cls-7" d="M315,411c-20.24,26.71-41.55,53-63.46,78.4,20.23-26.71,41.56-53,63.46-78.4Z"/><path class="cls-8" d="M306.9,403.25c-15,10-31.8,20.68-47.22,30.1,15-10,31.8-20.68,47.22-30.1Z"/><line class="cls-6" x1="298.29" y1="389.53" x2="204.83" y2="427.46"/><path class="cls-7" d="M298.29,389.53c-30.62,13.59-62,26.34-93.46,37.93,30.62-13.6,62-26.33,93.46-37.93Z"/><path class="cls-8" d="M296.87,377.89c-18,1.94-37.76,3.7-55.78,5,18-2,37.75-3.7,55.78-5Z"/><line class="cls-6" x1="296.87" y1="361.63" x2="196.81" y2="348.9"/><path class="cls-7" d="M296.87,361.63c-33.36-3.17-67-7.43-100.06-12.73,33.36,3.15,67,7.44,100.06,12.73Z"/><path class="cls-8" d="M299.71,348c-17.17-5.63-35.93-12.18-52.87-18.46,17.17,5.62,35.93,12.18,52.87,18.46Z"/><line class="cls-6" x1="309.13" y1="334.99" x2="223.22" y2="282.14"/><path class="cls-7" d="M309.13,335c-29.08-16.64-57.95-34.38-85.91-52.85,29.09,16.62,58,34.39,85.91,52.85Z"/><path class="cls-8" d="M317.87,324.77c-12-13.53-24.87-28.65-36.32-42.63,12,13.52,24.87,28.65,36.32,42.63Z"/><path class="cls-8" d="M339.59,314.72c-4-17.61-8.13-37.06-11.5-54.81,4.05,17.61,8.13,37.06,11.5,54.81Z"/><line class="cls-6" x1="348.76" y1="312.94" x2="341.61" y2="212.34"/><path class="cls-7" d="M348.76,312.94c-3.44-33.32-5.86-67.13-7.15-100.6,3.45,33.32,5.85,67.12,7.15,100.6Z"/><path class="cls-8" d="M363.19,312.94c1.67-18,3.89-37.73,6.26-55.65-1.68,18-3.9,37.74-6.26,55.65Z"/><line class="cls-6" x1="409.38" y1="353.41" x2="503.27" y2="316.56"/><path class="cls-7" d="M409.38,353.41c30.78-13.23,62.32-25.62,93.89-36.85-30.78,13.24-62.33,25.62-93.89,36.85Z"/><path class="cls-8" d="M413,366.67c17.71-3.59,37.26-7.17,55.09-10.09-17.71,3.6-37.26,7.18-55.09,10.09Z"/><line class="cls-6" x1="404.54" y1="400.31" x2="493.09" y2="448.61"/><path class="cls-7" d="M404.54,400.31c29.91,15.1,59.67,31.32,88.55,48.3-29.92-15.09-59.66-31.32-88.55-48.3Z"/><path class="cls-8" d="M398.74,408.54c14.71,10.49,30.67,22.33,45,33.38-14.71-10.49-30.66-22.34-45-33.38Z"/><path class="cls-9" d="M349.34,365.84l-.15-8.53,5.32,7.32,5.73-6.6q-.06,4-.11,8l6.85-.14-5.77,4.53,6,5.51-7.82.07.78,7.47-5.65-5.6L348.4,383c.25-2.52.49-5.05.74-7.57l-7.77.75,5.74-5.73-5.6-5.46Z"/><circle class="cls-10" cx="352.19" cy="371.4" r="0.31"/><circle class="cls-10" cx="350.27" cy="372.13" r="0.57"/><circle class="cls-10" cx="347.67" cy="373.35" r="1"/><circle class="cls-10" cx="353.5" cy="373.66" r="0.31"/><circle class="cls-10" cx="352.41" cy="375.4" r="0.57"/><circle class="cls-10" cx="351.08" cy="377.95" r="1"/><circle class="cls-10" cx="355.77" cy="373.97" r="0.31"/><circle class="cls-10" cx="356.49" cy="375.89" r="0.57"/><circle class="cls-10" cx="357.71" cy="378.5" r="1"/><circle class="cls-10" cx="357.43" cy="372.2" r="0.31"/><circle class="cls-10" cx="359.3" cy="373.05" r="0.57"/><circle class="cls-10" cx="361.99" cy="374.05" r="1"/><circle class="cls-10" cx="358.06" cy="369.39" r="0.31"/><circle class="cls-10" cx="360.01" cy="368.72" r="0.57"/><circle class="cls-10" cx="362.65" cy="367.6" r="1"/><circle class="cls-10" cx="355.62" cy="368.28" r="0.31"/><circle class="cls-10" cx="356.62" cy="366.49" r="0.57"/><circle class="cls-10" cx="357.82" cy="363.88" r="1"/><circle class="cls-10" cx="353.01" cy="367.48" r="0.31"/><circle class="cls-10" cx="352.28" cy="365.56" r="0.57"/><circle class="cls-10" cx="351.07" cy="362.96" r="1"/><circle class="cls-10" cx="351.01" cy="369.19" r="0.31"/><circle class="cls-10" cx="349.14" cy="368.34" r="0.57"/><circle class="cls-10" cx="346.45" cy="367.34" r="1"/><path class="cls-9" d="M343.87,365.24c-2.19-2.24-2-5.28-.71-6.28s4.28-.56,6,2.08"/><path class="cls-9" d="M351.32,360.59c-.54-3.21,1.48-5.56,3.15-5.61s4,2.21,3.88,5.44"/><path class="cls-9" d="M360.16,361.11c2.42-2.48,6-2.53,7.24-1.33s1,4.37-1.9,6.39"/><path class="cls-9" d="M365.4,367c3.35-.42,5.65,1.78,5.59,3.52s-2.55,4.06-5.88,3.8"/><path class="cls-9" d="M364.42,376.07c2.78,2.07,3.29,5.59,2.27,7s-4.2,1.58-6.58-1.05"/><path class="cls-9" d="M358.91,381.93c-.13,3.87-3,6.34-5,6.13s-4.16-3.22-3.27-7"/><path class="cls-9" d="M348.62,381.37c-2.56,2.7-6.36,2.8-7.74,1.52s-1.15-4.7,2-6.91"/><path class="cls-9" d="M344.24,373.43c-3.63,1-7-.87-7.54-2.7s1.44-4.68,5.29-5"/><circle class="cls-9" cx="354.12" cy="371.05" r="19"/><circle class="cls-9" cx="334.86" cy="317.35" r="1.02"/><circle class="cls-9" cx="344.44" cy="314.78" r="1.02"/><circle class="cls-9" cx="355.62" cy="313.76" r="1.02"/><circle class="cls-9" cx="368.13" cy="315.31" r="1.02"/><circle class="cls-9" cx="381.06" cy="320.52" r="1.02"/><circle class="cls-9" cx="392.61" cy="328.87" r="1.02"/><circle class="cls-9" cx="401.65" cy="339.51" r="1.02"/><circle class="cls-9" cx="406.87" cy="349.63" r="1.02"/><circle class="cls-9" cx="409.85" cy="360.59" r="1.02"/><circle class="cls-9" cx="410.75" cy="373.21" r="1.02"/><circle class="cls-9" cx="409.38" cy="383.5" r="1.02"/><circle class="cls-9" cx="405.54" cy="395.18" r="1.02"/><circle class="cls-9" cx="400.48" cy="402.97" r="1.02"/><circle class="cls-9" cx="393.28" cy="411.38" r="1.02"/><circle class="cls-9" cx="382.05" cy="419.52" r="1.02"/><circle class="cls-9" cx="373.12" cy="423.65" r="1.02"/><circle class="cls-9" cx="359.47" cy="426.57" r="1.02"/><circle class="cls-9" cx="342.59" cy="425.51" r="1.02"/><circle class="cls-9" cx="330.18" cy="421.56" r="1.02"/><circle class="cls-9" cx="320.18" cy="415.37" r="1.02"/><circle class="cls-9" cx="310.83" cy="406.25" r="1.02"/><circle class="cls-9" cx="303.73" cy="395.41" r="1.02"/><circle class="cls-9" cx="299.06" cy="382.28" r="1.02"/><circle class="cls-9" cx="297.82" cy="369.73" r="1.02"/><circle class="cls-9" cx="299.71" cy="355.59" r="1.02"/><circle class="cls-9" cx="305.21" cy="342.38" r="1.02"/><circle class="cls-9" cx="314.16" cy="330.72" r="1.02"/><circle class="cls-9" cx="323.88" cy="322.63" r="1.02"/><path class="cls-9" d="M328.88,380.1,327.11,394l16.51,1.59,10.92,10.65,11.17-10.08,15.76,2.27L381,381.75l9.63-11.44-10.14-9.05q.8-6.79,1.6-13.57L366,346.11l-11.18-8.82-9.91,7.53-15.94.31-.83,14.58-7.93,10.6Z"/><path class="cls-9" d="M340.43,356.79c.07-7.07-8.83-18.13.22-21.22s9,11,13.47,16.47c0,0,7.76-16.29,15.33-13.55s-.71,20.42-.71,20.42,20.23-12.34,23.87-3.65-19.49,15.79-19.49,15.79,21.53,6.85,20.51,15.6-25.74-2-25.74-2,10.84,18,1.56,21.59-15.33-16.2-15.33-16.2-5.07,17.6-14.53,15.26-.23-21.63-.23-21.63-18,7.94-20.52.88,16.28-13.51,16.28-13.51c-5.72-5.27-20.79-7.85-17.14-15.82S332.94,356.27,340.43,356.79Z"/><path class="cls-9" d="M354.27,337.29c.62-.42,7.93-5.19,16.46-1.86,8.38,3.27,10.6,11.47,10.79,12.26,0,0,21.93,2,8.54,22.62,0,0,14.87,21.31-9.12,28.13,0,0-10.54,17.4-26.92,7.81,0,0-22.42,6.92-27.44-12.24,0,0-17.36-7.21-6.92-23.7,0,0-14.25-21.22,8.75-25.18C328.41,345.13,337.22,324.45,354.27,337.29Z"/><polygon class="cls-9" points="355.62 316.23 352.84 325.83 358.41 325.83 355.62 316.23"/><polygon class="cls-9" points="367.55 317.84 362.73 326.6 368.16 327.82 367.55 317.84"/><polygon class="cls-9" points="380.02 322.31 372.81 329.23 377.63 332.02 380.02 322.31"/><polygon class="cls-9" points="390.7 331.17 381.94 335.99 385.88 339.93 390.7 331.17"/><polygon class="cls-9" points="399.9 340.84 390.35 343.8 393.41 348.45 399.9 340.84"/><polygon class="cls-9" points="404.59 350.8 394.69 352.15 396.95 357.24 404.59 350.8"/><polygon class="cls-9" points="407.47 361.11 397.58 359.63 398.32 365.15 407.47 361.11"/><polygon class="cls-9" points="408.05 373.35 398.45 370.56 398.45 376.13 408.05 373.35"/><polygon class="cls-9" points="406.87 383.69 397.12 381.5 397.46 387.06 406.87 383.69"/><polygon class="cls-9" points="403.38 394.41 394.93 389.06 393.38 394.41 403.38 394.41"/><polygon class="cls-9" points="399.17 402.44 391.61 395.9 389.28 400.96 399.17 402.44"/><polygon class="cls-9" points="391.9 410.05 384.97 402.83 382.19 407.65 391.9 410.05"/><polygon class="cls-9" points="381.03 418.33 378.13 408.76 373.46 411.79 381.03 418.33"/><polygon class="cls-9" points="372.27 421.68 370.02 411.93 365.16 414.64 372.27 421.68"/><polygon class="cls-9" points="359.6 424.64 361.05 414.75 355.54 415.5 359.6 424.64"/><polygon class="cls-9" points="343.03 423.41 347.86 414.65 342.42 413.43 343.03 423.41"/><polygon class="cls-9" points="331.2 418.79 337.69 411.19 332.62 408.89 331.2 418.79"/><polygon class="cls-9" points="322.17 413 329.66 406.37 324.95 403.39 322.17 413"/><polygon class="cls-9" points="312.85 404.43 322 400.39 318.42 396.12 312.85 404.43"/><polygon class="cls-9" points="306.64 395.35 316.25 392.57 313.27 387.86 306.64 395.35"/><polygon class="cls-9" points="302.47 381.86 312.47 381.86 310.92 376.51 302.47 381.86"/><polygon class="cls-9" points="300.21 369.63 310.2 370.19 308.95 364.76 300.21 369.63"/><polygon class="cls-9" points="301.55 355.26 311.16 358.05 311.16 352.48 301.55 355.26"/><polygon class="cls-9" points="306.93 343.15 314.5 349.69 316.82 344.63 306.93 343.15"/><polygon class="cls-9" points="316.35 332.13 322.78 339.79 325.88 335.17 316.35 332.13"/><polygon class="cls-9" points="325.38 324.08 329.66 333.12 333.83 329.42 325.38 324.08"/><polygon class="cls-9" points="336.12 319.49 339.01 329.07 343.68 326.03 336.12 319.49"/><polygon class="cls-9" points="345.29 317.03 345.9 327.01 351.15 325.14 345.29 317.03"/></g></svg>