<?xml version="1.0" encoding="utf-8"?>
<!-- Generator: Adobe Illustrator 26.0.3, SVG Export Plug-In . SVG Version: 6.00 Build 0)  -->
<svg version="1.1" id="Layer_1" xmlns="http://www.w3.org/2000/svg" xmlns:xlink="http://www.w3.org/1999/xlink" x="0px" y="0px"
	 viewBox="0 0 64.9 64.9" style="enable-background:new 0 0 64.9 64.9;" xml:space="preserve">
<g id="Text">
	<path d="M32.6,64.9L32.6,64.9c-8.5,0-16.6-3.3-22.6-9.1c-6.3-6-9.9-14.1-9.9-23c-0.1-8.7,3.1-16.9,9.1-22.9
		c6-6.2,14.5-9.8,23.2-9.9c0,0,0.1,0,0.2,0c17.8,0,32.4,14.4,32.4,32.3C65,50.1,50.5,64.8,32.6,64.9L32.6,64.9z M32.4,1.3
		c0,0-0.1,0-0.2,0C23.9,1.3,15.8,4.9,10,10.8c-5.7,5.8-8.8,13.7-8.7,22c0.1,8.5,3.5,16.3,9.6,22c5.9,5.5,13.6,8.7,21.8,8.7
		c17.2-0.1,31-14.1,31-31.3C63.5,15.1,49.5,1.3,32.4,1.3z M32.8,62.9V48.3h0.7c4.6,0,9.2,1.2,13.3,3.2l0.7,0.3L47,52.4
		c-3.5,4.4-8.1,7.9-13.3,10.1L32.8,62.9z M34.1,49.6v11.3c4.4-2,8.2-5,11.3-8.6C41.9,50.6,38.1,49.7,34.1,49.6z M32,62.9l-0.9-0.3
		c-5.2-2.2-9.9-5.6-13.4-10l-0.5-0.6l0.6-0.4c3-1.8,10.6-3.7,13.6-3.2l0.5,0.1L32,62.9L32,62.9z M19.3,52.3
		c3.1,3.7,7.1,6.7,11.5,8.6V49.6C28,49.4,22.2,50.8,19.3,52.3z M28.8,62.6l-3.6-0.8c-4.5-1-8.8-3.2-12.3-6.1l-0.7-0.5l4.3-3l0.4,0.5
		c2.5,3.2,5.4,5.8,8.8,8L28.8,62.6z M14.4,55.2c2.2,1.8,4.7,3.2,7.4,4.2c-2-1.6-3.9-3.5-5.5-5.5L14.4,55.2z M36.5,62.2l2.4-1.5
		c3.5-2.1,6.5-4.9,8.9-8.1l0.4-0.5l4.2,2.9L52,55.6c-2.5,2.6-9.1,5.9-12.6,6.3L36.5,62.2z M48.5,53.8c-1.7,2.1-3.6,4-5.8,5.7
		c2.8-1.1,5.9-2.8,7.7-4.4L48.5,53.8z M53.2,54.7l-4.4-2.9l0.1-0.6L49,51c3.5-5.2,5.5-11.2,5.8-17.5l0-0.6h8l0,0.7
		c-0.4,7.8-3.7,15.2-9.2,20.8L53.2,54.7z M50.4,51.2L53,53c4.9-5.1,7.9-11.7,8.5-18.8H56C55.7,40.3,53.8,46.1,50.4,51.2z M11.7,54.5
		l-0.4-0.3c-5.7-5.4-9-12.9-9.2-20.7l0-0.7h7.1c0.3,0,1,0.1,1,1c0,0,0,0,0,0.1c0.1,0.7,0.2,1.4,0.3,2.1c0.2,1.5,0.3,2.9,0.7,4.4
		c0.8,3.7,2.3,7.2,4.4,10.4l0.5,0.8L11.7,54.5z M3.5,34.1c0.3,7,3.4,13.8,8.4,18.8l2.4-1.7c-2.1-3.2-3.6-6.8-4.5-10.6
		c-0.3-1.5-0.5-3-0.7-4.5c-0.1-0.7-0.2-1.3-0.3-2H3.5z M16.9,51.3l-0.3-0.5c-3.5-5.1-5.5-11.1-5.7-17.3l0-0.7H32v14.5l-0.6,0
		c-4.9,0.2-9.7,1.4-14.1,3.7L16.9,51.3z M12.2,34.2c0.3,5.5,2.1,10.8,5.1,15.4c4.2-2.1,8.8-3.3,13.4-3.5V34.1L12.2,34.2L12.2,34.2z
		 M47.9,51.3L47.4,51c-4.3-2.3-9.1-3.5-13.9-3.6l-0.6,0V34.1c0-0.8,0.4-1.2,1.2-1.2h20l0,0.7c-0.3,6.2-2.3,12.2-5.8,17.3L47.9,51.3z
		 M34.1,46.1c4.7,0.2,9.2,1.4,13.4,3.5c3.1-4.6,4.9-9.9,5.3-15.5H34.1L34.1,46.1L34.1,46.1z M10.1,32.1l-8,0l0-0.7
		c0.2-7.8,3.5-15.4,9.3-20.7l0.3-0.3l4.3,2.8l-0.3,0.5c-3.5,5.3-5.4,11.4-5.6,17.8L10.1,32.1z M3.5,30.8l5.4,0
		c0.3-6.1,2.1-12.1,5.4-17.3L12,12C6.9,16.9,3.8,23.7,3.5,30.8z M62.8,32.1h-8l0-0.6C54.5,25.1,52.5,19,49,13.7l-0.4-0.6l4.6-2.8
		l0.3,0.3c5.6,5.5,8.7,12.5,9.2,20.7L62.8,32.1z M56,30.8h5.4C60.8,23.3,58,17.2,52.9,12l-2.5,1.5C53.8,18.8,55.7,24.7,56,30.8z
		 M32.9,32.1V17.4l0.6,0c4.8-0.2,9.6-1.4,13.9-3.7l0.5-0.3l0.3,0.5c3.5,5.2,5.6,11.2,5.8,17.5l0,0.7C54.1,32.1,32.9,32.1,32.9,32.1z
		 M34.2,18.7v12.1h18.6c-0.3-5.6-2.2-11-5.2-15.6C43.4,17.2,38.8,18.5,34.2,18.7z M32,32.1H10.9l0-0.7c0.2-6.2,2.1-12.3,5.6-17.5
		l0.3-0.5l0.5,0.3c4.3,2.2,9.2,3.5,14.1,3.7l0.6,0C32,17.4,32,32.1,32,32.1z M12.2,30.8h18.5V18.7c-4.7-0.3-9.3-1.5-13.4-3.5
		C14.3,19.8,12.5,25.2,12.2,30.8z M32.8,16.7V2.1l0.9,0.3c5.2,2,9.8,5.4,13.3,9.9l0.5,0.6l-0.7,0.3c-4.2,2-8.6,3.2-13.3,3.4
		L32.8,16.7z M34.1,4v11.3c3.9-0.3,7.7-1.2,11.3-2.9C42.4,8.8,38.6,5.9,34.1,4z M32,16.7l-0.7,0c-4.7-0.2-9.2-1.3-13.4-3.4l-0.7-0.3
		l0.5-0.6c3.5-4.4,8.1-7.8,13.4-9.8L32,2.1V16.7z M19.3,12.4c3.6,1.7,7.5,2.6,11.5,2.9V4C26.3,5.9,22.4,8.7,19.3,12.4z M48.1,12.6
		l-0.3-0.5c-2.4-3.2-5.4-5.8-8.7-8L35.8,2l3.9,1c4.5,1.2,8.7,3.3,12.2,6.3l0.7,0.6L48.1,12.6z M43.1,5.5c1.9,1.6,3.7,3.4,5.3,5.4
		l1.8-1.2C48.1,7.9,45.7,6.5,43.1,5.5z M16.6,12.6l-4.4-2.7l0.7-0.6c3.5-3,7.8-5.1,12.2-6.3l3.9-1l-3.4,2.2
		c-3.3,2.1-6.2,4.8-8.7,7.9L16.6,12.6z M14.4,9.7l1.8,1.2c1.5-1.9,3.3-3.7,5.2-5.3C19,6.6,16.6,8,14.4,9.7z"/>
	<path d="M32,32.1H10.8l0-0.7c0.2-6.2,2.2-12.3,5.7-17.5l0.3-0.5l0.5,0.3c4.3,2.3,9.2,3.5,14.1,3.7l0.6,0V32.1z M12.2,30.8h18.6
		l0-12.1c-4.7-0.2-9.3-1.5-13.5-3.5C14.3,19.8,12.5,25.2,12.2,30.8z"/>
	<path d="M54.1,32.1H32.9V17.4l0.6,0c4.8-0.2,9.6-1.4,13.9-3.7l0.5-0.3l0.3,0.5c3.5,5.2,5.6,11.2,5.8,17.5L54.1,32.1L54.1,32.1z
		 M34.2,30.8h18.6c-0.3-5.6-2.2-11-5.2-15.7c-4.1,2.1-8.7,3.3-13.3,3.5L34.2,30.8L34.2,30.8z"/>
	<path d="M16.9,51.3l-0.3-0.5c-3.5-5.1-5.4-11.1-5.6-17.3l0-0.7H32v14.5l-0.6,0c-4.9,0.2-9.7,1.4-14.1,3.7L16.9,51.3z M12.2,34.2
		c0.3,5.5,2,10.8,5,15.4c4.2-2.1,8.8-3.3,13.4-3.5V34.1L12.2,34.2L12.2,34.2z"/>
	<path d="M47.9,51.3L47.4,51c-4.3-2.3-9.1-3.5-13.9-3.7l-0.6,0V34.1c0-0.8,0.4-1.2,1.2-1.2h20.1l0,0.7c-0.3,6.2-2.3,12.2-5.9,17.3
		L47.9,51.3z M34.2,46.1c4.6,0.2,9.2,1.5,13.3,3.5c3.1-4.6,5-10,5.3-15.5H34.2V46.1L34.2,46.1z"/>
	<path d="M11.7,54.5l-0.4-0.3c-5.7-5.4-9-12.9-9.2-20.7l0-0.7h7.1c0.3,0,1,0.1,1,1c0,0,0,0,0,0.1c0.1,0.7,0.2,1.4,0.3,2.1
		c0.2,1.5,0.3,2.9,0.7,4.4c0.8,3.7,2.3,7.2,4.4,10.4l0.5,0.8L11.7,54.5z M3.5,34.1c0.3,7,3.4,13.8,8.4,18.8l2.4-1.7
		c-2.1-3.2-3.6-6.8-4.5-10.6c-0.3-1.5-0.5-3-0.7-4.5c-0.1-0.7-0.2-1.3-0.3-2L3.5,34.1L3.5,34.1z"/>
	<path d="M10.1,32.1h-8v-0.7c0.2-7.8,3.5-15.4,9.2-20.8l0.3-0.3l4.3,2.8l-0.3,0.5c-3.5,5.3-5.4,11.4-5.5,17.8L10.1,32.1z M3.5,30.8
		h5.4c0.3-6.1,2.1-12.1,5.4-17.3L11.9,12C6.8,16.9,3.8,23.7,3.5,30.8z"/>
	<path d="M62.8,32.1h-8l0-0.6C54.5,25.1,52.5,19,49,13.7l-0.4-0.6l4.6-2.8l0.3,0.3c5.6,5.6,8.7,12.5,9.2,20.7L62.8,32.1z M56,30.8
		h5.4C60.8,23.3,58,17.1,53,11.9l-2.5,1.6C53.8,18.7,55.7,24.6,56,30.8z"/>
	<path d="M53.2,54.5l-4.5-3L49,51c3.5-5.2,5.5-11.2,5.8-17.5l0-0.6h8l0,0.7c-0.4,7.8-3.7,15.1-9.2,20.7L53.2,54.5z M50.5,51.2
		l2.6,1.7c4.9-5.1,7.9-11.7,8.4-18.8h-5.4C55.7,40.2,53.8,46.1,50.5,51.2z"/>
	<path d="M32,62.9l-0.9-0.3c-5.2-2.2-9.9-5.6-13.4-10l-0.5-0.6l0.6-0.4c3-1.8,10.6-3.7,13.6-3.2l0.5,0.1L32,62.9L32,62.9z
		 M19.3,52.3c3.1,3.7,7.1,6.7,11.5,8.6V49.6C28,49.4,22.2,50.8,19.3,52.3z"/>
	<path d="M32,16.7l-0.7,0c-4.7-0.2-9.2-1.3-13.4-3.4l-0.7-0.3l0.5-0.6c3.5-4.4,8.1-7.8,13.4-9.8L32,2.2V16.7z M19.3,12.4
		c3.6,1.7,7.5,2.6,11.5,2.9V4C26.3,5.9,22.3,8.7,19.3,12.4z"/>
	<path d="M32.8,62.9V48.3h0.7c4.6,0,9.2,1.2,13.3,3.2l0.7,0.3L47,52.4c-3.5,4.4-8.1,7.9-13.3,10.1L32.8,62.9z M34.1,49.6v11.3
		c4.4-2,8.2-5,11.3-8.6C41.9,50.6,38.1,49.7,34.1,49.6z"/>
	<path d="M32.8,16.7V2.1l0.9,0.3c5.2,2,9.8,5.4,13.3,9.9l0.5,0.6l-0.7,0.3c-4.2,2-8.6,3.2-13.3,3.4L32.8,16.7z M34.1,4v11.4
		c3.9-0.3,7.7-1.2,11.3-2.9C42.4,8.7,38.6,5.9,34.1,4z"/>
	<path d="M36.5,62.2l2.4-1.5c3.5-2.1,6.5-4.9,8.9-8.1l0.4-0.5l4.2,2.9L52,55.6c-2.5,2.6-9.1,5.9-12.6,6.3L36.5,62.2z M48.5,53.8
		c-1.7,2.1-3.6,4-5.8,5.7c2.8-1.1,5.9-2.8,7.7-4.4L48.5,53.8z"/>
	<path d="M28.7,62.6l-3.6-0.8c-4.5-1-8.8-3.1-12.3-6.1l-0.7-0.5l4.4-3l0.3,0.5c2.4,3.1,5.4,5.8,8.7,8L28.7,62.6z M14.3,55.2
		c2.3,1.8,4.8,3.2,7.4,4.2c-2-1.6-3.9-3.5-5.5-5.5L14.3,55.2z"/>
	<path d="M48.1,12.6l-0.3-0.5c-2.4-3.2-5.4-5.8-8.7-8L35.8,2l3.9,1c4.5,1.2,8.7,3.3,12.2,6.3l0.7,0.6L48.1,12.6z M43.1,5.5
		c1.9,1.6,3.7,3.4,5.3,5.4l1.8-1.2C48.1,7.9,45.7,6.5,43.1,5.5z"/>
	<path d="M16.6,12.6l-4.4-2.7l0.7-0.6c3.5-3,7.8-5.1,12.2-6.3l3.9-1l-3.4,2.2c-3.3,2.1-6.2,4.8-8.7,7.9L16.6,12.6z M14.4,9.7
		l1.8,1.2c1.5-1.9,3.3-3.7,5.2-5.3C19,6.6,16.6,8,14.4,9.7z"/>
</g>
</svg>
